<?xml version="1.0" standalone="no"?><svg xmlns="http://www.w3.org/2000/svg" viewBox="0 0 1440 320"><path fill="#3F3D56" fill-opacity="1" d="M0,224L20,213.3C40,203,80,181,120,149.3C160,117,200,75,240,96C280,117,320,203,360,208C400,213,440,139,480,133.3C520,128,560,192,600,213.3C640,235,680,213,720,224C760,235,800,277,840,288C880,299,920,277,960,250.7C1000,224,1040,192,1080,197.3C1120,203,1160,245,1200,224C1240,203,1280,117,1320,74.7C1360,32,1400,32,1420,32L1440,32L1440,320L1420,320C1400,320,1360,320,1320,320C1280,320,1240,320,1200,320C1160,320,1120,320,1080,320C1040,320,1000,320,960,320C920,320,880,320,840,320C800,320,760,320,720,320C680,320,640,320,600,320C560,320,520,320,480,320C440,320,400,320,360,320C320,320,280,320,240,320C200,320,160,320,120,320C80,320,40,320,20,320L0,320Z"></path></svg>