<?xml version="1.0" standalone="no"?><svg xmlns="http://www.w3.org/2000/svg" viewBox="0 0 1440 320"><path fill="#ffffff" fill-opacity="1" d="M0,288L34.3,261.3C68.6,235,137,181,206,144C274.3,107,343,85,411,90.7C480,96,549,128,617,165.3C685.7,203,754,245,823,245.3C891.4,245,960,203,1029,208C1097.1,213,1166,267,1234,266.7C1302.9,267,1371,213,1406,186.7L1440,160L1440,320L1405.7,320C1371.4,320,1303,320,1234,320C1165.7,320,1097,320,1029,320C960,320,891,320,823,320C754.3,320,686,320,617,320C548.6,320,480,320,411,320C342.9,320,274,320,206,320C137.1,320,69,320,34,320L0,320Z"></path></svg>