<?xml version="1.0" standalone="no"?><svg xmlns="http://www.w3.org/2000/svg" viewBox="0 0 1440 320"><path fill="#243b7f" fill-opacity="1" d="M0,32L24,32C48,32,96,32,144,69.3C192,107,240,181,288,176C336,171,384,85,432,64C480,43,528,85,576,85.3C624,85,672,43,720,58.7C768,75,816,149,864,154.7C912,160,960,96,1008,74.7C1056,53,1104,75,1152,74.7C1200,75,1248,53,1296,42.7C1344,32,1392,32,1416,32L1440,32L1440,0L1416,0C1392,0,1344,0,1296,0C1248,0,1200,0,1152,0C1104,0,1056,0,1008,0C960,0,912,0,864,0C816,0,768,0,720,0C672,0,624,0,576,0C528,0,480,0,432,0C384,0,336,0,288,0C240,0,192,0,144,0C96,0,48,0,24,0L0,0Z"></path></svg>